<svg width="996" height="664" viewBox="0 0 996 664" fill="none" xmlns="http://www.w3.org/2000/svg">
<path d="M225.372 197C225.372 197.44 225.885 201.988 228.103 214.912C229.808 223.513 232.691 236.263 234.659 243.8C236.627 251.337 237.593 253.276 241.919 257.929" stroke="black" stroke-width="5" stroke-linecap="round"/>
<path d="M263.06 222.973C260.394 223.413 257.246 225.397 254.172 229.205C251.153 232.944 251.311 238.098 252.3 242.087C252.792 244.073 255.267 245.197 257.43 245.986C259.593 246.775 261.881 246.995 264.203 246.613C266.526 246.23 268.814 245.238 270.483 243.465C272.151 241.692 273.132 239.167 273.414 236.646C273.697 234.126 273.252 231.686 268.746 228.497" stroke="black" stroke-width="5" stroke-linecap="round"/>
<path d="M215.083 306.494C215.962 306.934 218.23 314.537 220.321 322.174C222.142 328.825 219.245 306.067 221.344 304.247C223.436 302.432 223.943 311.064 227.758 314.073C232.559 317.86 240.796 316.825 247.083 315.826C249.742 315.404 250.682 312.83 251.358 309.679C252.921 302.397 251.489 295.611 248.987 293.155C247.904 292.091 245.48 295.062 246.051 298.038C247.517 305.676 259.717 311.09 270.965 314.475C275.537 315.851 278.124 315.33 279.965 314.219C283.625 312.011 284.257 301.133 284.971 291.073C285.125 288.894 286.225 292.862 288.265 293.323C290.305 293.784 293.602 290.67 296.179 289.723C300.263 288.222 303.307 293.509 305.452 295.534C310.7 288.157 315.312 281.075 319.185 280.704C321.299 281.666 323.717 284.962 326.874 289.025" stroke="black" stroke-width="5" stroke-linecap="round"/>
<path d="M149.988 429.479C149.988 429.698 149.988 429.918 150.369 431.505C150.749 433.092 151.51 436.039 152.062 438.966C152.615 441.893 152.936 444.711 153.933 452.276" stroke="black" stroke-width="5" stroke-linecap="round"/>
<path d="M147.384 413.008L149.382 411.659" stroke="black" stroke-width="5" stroke-linecap="round"/>
<path d="M177.618 411.992C177.618 411.547 174.87 411.538 170.374 413.299C168.203 414.15 167.957 417.698 168.382 420.049C169.193 424.53 173.909 427.508 176.793 431.157C178.218 432.96 177.474 435.906 176.208 437.755C174.943 439.603 172.644 440.584 170.198 441.419C167.753 442.254 165.231 442.913 161.275 441.577" stroke="black" stroke-width="5" stroke-linecap="round"/>
<path d="M187.744 410.43C188.285 415.995 191.553 428.252 197.196 436.14C198.415 437.844 201.502 436.6 203.839 435.112C213.743 428.809 216.188 416.579 218.621 399.428C219.515 393.12 218.275 388.411 217.422 386.883C212.42 377.92 222.375 405.266 226.45 408.508C228.339 410.012 230.758 409.899 233.209 408.686C238.934 405.854 241.673 399.22 244.05 396.188C247.211 392.156 252.681 403.18 255.118 404.847C257.503 406.477 260.44 399.592 265.776 398.821C279.389 396.856 285.542 414.124 289.78 417.756C290.949 418.758 291.513 412.868 292.725 410.602C300.583 407.348 306.217 402.388 310.323 400.104C313.229 399.902 317.805 401.643 326.123 405.076" stroke="black" stroke-width="5" stroke-linecap="round"/>
<path d="M122 533.235C123.054 543.681 128.107 556.741 133.341 564.52C136.043 568.535 141.499 555.658 147.459 553.071C154.594 549.975 162.285 555.132 165.623 558.845C155.377 568.282 136.15 575.719 133.442 576.433C132.594 575.843 132.813 573.319 133.04 570.718" stroke="black" stroke-width="5" stroke-linecap="round"/>
<path d="M172.964 516.286C172.964 515.841 173.505 518.649 176.907 529.406C179.768 537.126 184.933 549.436 189.024 558.066C193.116 566.695 195.979 571.271 200.926 575.303" stroke="black" stroke-width="5" stroke-linecap="round"/>
<path d="M218.447 537.512C215.619 537.067 211.718 537.274 207.633 539.235C198.321 543.703 203.446 557.882 204.545 562.149C204.956 563.746 207.841 562.708 209.633 561.476C212.743 558.472 214.321 553.764 215.033 550.869C215.525 550.856 216.283 553.801 221.726 556.126" stroke="black" stroke-width="5" stroke-linecap="round"/>
<path d="M228.941 505.759C228.496 505.759 231.558 516.685 236.983 532.237C238.661 537.046 239.997 534.852 241.329 533.149C242.661 531.447 244.42 530.111 246.534 529.53C248.648 528.949 251.066 529.163 253.236 529.926C255.405 530.689 257.253 531.993 258.313 533.764C259.372 535.535 259.586 537.733 258.392 539.458C254.589 542.369 248.407 544.572 242.111 544.726C239.31 543.9 237.306 541.238 235.242 537.154" stroke="black" stroke-width="5" stroke-linecap="round"/>
<path d="M252.686 496.188C251.795 496.188 250.892 499.225 250.217 505.016C249.988 510.148 250.85 515.945 252.596 522.226C253.479 525.159 254.359 527.576 256.596 534.729" stroke="black" stroke-width="5" stroke-linecap="round"/>
<path d="M289.289 510.95C286.46 510.302 280.979 509.644 274.498 510.517C269.463 511.195 270.479 519.849 271.022 525.084C271.299 527.762 272.649 530.319 274.3 531.168C278.134 531.04 281.246 526.232 283.802 523.021C285.496 523.612 287.995 528.709 291.236 535.292" stroke="black" stroke-width="5" stroke-linecap="round"/>
</svg>
